<?xml version="1.0" encoding="utf-8"?>
<!-- Generator: Adobe Illustrator 28.0.0, SVG Export Plug-In . SVG Version: 6.00 Build 0)  -->
<svg version="1.1" xmlns="http://www.w3.org/2000/svg" xmlns:xlink="http://www.w3.org/1999/xlink" x="0px" y="0px"
	 viewBox="0 0 7120.6 2371.5" style="enable-background:new 0 0 7120.6 2371.5;" xml:space="preserve">
<style type="text/css">
	.st0{display:none;}
	.st1{display:inline;}
	.st2{fill:#014063;}
	.st3{fill:#FFFFFF;}
</style>
<g id="Full_color" class="st0">
	<g class="st1">
		<path class="st2" d="M88.6,1288.8c19.2-33.3,46.2-59.4,77.3-77.3c33.3-19.2,69.7-28.3,105.6-28.3c38.5,0,74.5,10.3,105.6,28.3
			c33.3,19.2,59.4,46.2,77.3,77.3c12.1,20.9,20.1,43,24.5,65.4c38.8,189.2,175.1,267.5,358.5,205.9c22.2-7.5,45-11.2,67.7-11.1
			c38.5,0,74.5,10.3,105.6,28.3c33.3,19.2,59.4,46.2,77.3,77.3c19.2,33.3,28.3,69.7,28.3,105.6c0,38.5-10.3,74.5-28.3,105.6
			c-19.2,33.3-46.2,59.4-77.3,77.3c-33.3,19.2-69.7,28.3-105.6,28.3c-23.6,0-46.2-3.9-67.4-11l0,0c-183.9-61.9-320.4,16.7-359,206.5
			c0,0,0-0.1,0-0.2c-4.5,23.2-12.9,45-24.3,64.8c-19.2,33.3-46.2,59.4-77.3,77.3c-33.3,19.2-69.7,28.3-105.6,28.3
			c-38.5,0-74.5-10.3-105.6-28.3c-33.3-19.2-59.4-46.2-77.3-77.3c-19.2-33.3-28.3-69.7-28.3-105.6c0-38.5,10.3-74.5,28.3-105.6
			c19.2-33.3,46.2-59.4,77.3-77.3c33.3-19.2,69.7-28.3,105.6-28.3c24.3,0,47.6,4.1,69.4,11.7c122.3,40.6,223.5,18.8,288.6-56.8
			c54.7-63.4,54.6-155.7-0.1-219.1c-65.3-75.7-166.9-97.4-289.7-56.3c0,0,0,0,0,0c-22.3,7.6-45.4,11.4-68.2,11.3
			c-38.5,0-74.5-10.3-105.6-28.3c-33.3-19.2-59.4-46.2-77.3-77.3c-19.2-33.3-28.3-69.7-28.3-105.6
			C60.3,1355.9,70.6,1319.9,88.6,1288.8z M6849.1,456.7c35.9,0,72.3-9.1,105.6-28.3c31.1-17.9,58.1-44,77.3-77.3
			c18-31.1,28.3-67.1,28.3-105.6c0-35.9-9.1-72.3-28.3-105.6c-17.9-31.1-44-58.1-77.3-77.3c-31.1-18-67.1-28.3-105.6-28.3
			c-35.9,0-72.3,9.1-105.6,28.3c-31.1,17.9-58.1,44-77.3,77.3c-18,31.1-28.3,67.1-28.3,105.6c0,35.9,9.1,72.3,28.3,105.6
			c17.9,31.1,44,58.1,77.3,77.3C6774.6,446.3,6810.6,456.7,6849.1,456.7z"/>
		<path d="M3556.4,1192.7c0-391.3-279.9-679-684.2-679c-404.3,0-689.4,287.7-689.4,679c0,391.3,287.7,679,692,679
			c298,0,531.3-152.9,629.8-393.9h-272.1c-75.2,111.4-191.8,163.3-357.6,163.3c-222.9,0-393.9-127-430.2-357.6h1111.8V1192.7z
			 M2452.4,1063.1c49.2-204.7,215.1-318.8,422.4-318.8c207.3,0,375.8,111.4,425,318.8H2452.4z M4380.6,513.7
			c-404.3,0-689.4,287.7-689.4,679c0,391.3,285.1,679,689.4,679c404.3,0,689.4-287.7,689.4-679
			C5069.9,801.3,4784.9,513.7,4380.6,513.7z M4383.1,1641c-264.3,0-440.6-186.6-440.6-448.4c0-261.8,176.2-448.4,440.6-448.4
			c264.3,0,440.6,186.6,440.6,448.4C4823.7,1454.4,4644.9,1641,4383.1,1641z M6479.8,2094.6h28.5c158.1,0,217.7-70,217.7-254V557.7
			h246.2V1825c0,318.8-124.4,482-440.6,482h-51.8V2094.6L6479.8,2094.6z M6358,1438.9V648.4c0-137.4-82.9-254-212.5-295.4
			c-127-41.5-264.3,2.6-344.7,111.4l-562.4,738.6c-67.4,90.7-80.3,199.6-33.7,292.9c49.2,98.5,158.1,160.7,282.5,160.7h624.6v305.8
			H6358v-303.2h186.6v-220.3H6358z M6111.8,1436.3H5495c-33.7,0-62.2-28.5-62.2-62.2c0-13,2.6-25.9,10.4-36.3l552-733.4
			c15.5-20.7,33.7-25.9,49.2-25.9c10.4,0,18.1,0,23.3,2.6c13,2.6,44.1,18.1,44.1,59.6V1436.3z M2048.1,1166.8V1838h-246.2v-671.2
			c0-279.9-152.9-422.4-386.2-422.4s-386.2,142.5-386.2,422.4V1469c-38.2-16.4-80.2-25.6-124.4-25.6c-41,0-82.3,8-121.8,24.4v-298.5
			c0-430.2,254-653.1,632.4-653.1C1794.1,516.3,2050.7,734,2048.1,1166.8z"/>
	</g>
</g>
<g id="White">
	<g>
		<path class="st3" d="M88.6,1288.8c19.2-33.3,46.2-59.4,77.3-77.3c33.3-19.2,69.7-28.3,105.6-28.3c38.5,0,74.5,10.3,105.6,28.3
			c33.3,19.2,59.4,46.2,77.3,77.3c12.1,20.9,20.1,43,24.5,65.4c38.8,189.2,175.1,267.5,358.5,205.9c22.2-7.5,45-11.2,67.7-11.1
			c38.5,0,74.5,10.3,105.6,28.3c33.3,19.2,59.4,46.2,77.3,77.3c19.2,33.3,28.3,69.7,28.3,105.6c0,38.5-10.3,74.5-28.3,105.6
			c-19.2,33.3-46.2,59.4-77.3,77.3c-33.3,19.2-69.7,28.3-105.6,28.3c-23.6,0-46.2-3.9-67.4-11l0,0c-183.9-61.9-320.4,16.7-359,206.5
			c0,0,0-0.1,0-0.2c-4.5,23.2-12.9,45-24.3,64.8c-19.2,33.3-46.2,59.4-77.3,77.3c-33.3,19.2-69.7,28.3-105.6,28.3
			c-38.5,0-74.5-10.3-105.6-28.3c-33.3-19.2-59.4-46.2-77.3-77.3c-19.2-33.3-28.3-69.7-28.3-105.6c0-38.5,10.3-74.5,28.3-105.6
			c19.2-33.3,46.2-59.4,77.3-77.3c33.3-19.2,69.7-28.3,105.6-28.3c24.3,0,47.6,4.1,69.4,11.7c122.3,40.6,223.5,18.8,288.6-56.8
			c54.7-63.4,54.6-155.7-0.1-219.1c-65.3-75.7-166.9-97.4-289.7-56.3c0,0,0,0,0,0c-22.3,7.6-45.4,11.4-68.2,11.3
			c-38.5,0-74.5-10.3-105.6-28.3c-33.3-19.2-59.4-46.2-77.3-77.3c-19.2-33.3-28.3-69.7-28.3-105.6
			C60.3,1355.9,70.6,1319.9,88.6,1288.8z M6849.1,456.7c35.9,0,72.3-9.1,105.6-28.3c31.1-17.9,58.1-44,77.3-77.3
			c18-31.1,28.3-67.1,28.3-105.6c0-35.9-9.1-72.3-28.3-105.6c-17.9-31.1-44-58.1-77.3-77.3c-31.1-18-67.1-28.3-105.6-28.3
			c-35.9,0-72.3,9.1-105.6,28.3c-31.1,17.9-58.1,44-77.3,77.3c-18,31.1-28.3,67.1-28.3,105.6c0,35.9,9.1,72.3,28.3,105.6
			c17.9,31.1,44,58.1,77.3,77.3C6774.6,446.3,6810.6,456.7,6849.1,456.7z"/>
		<path class="st3" d="M3556.4,1192.7c0-391.3-279.9-679-684.2-679c-404.3,0-689.4,287.7-689.4,679c0,391.3,287.7,679,692,679
			c298,0,531.3-152.9,629.8-393.9h-272.1c-75.2,111.4-191.8,163.3-357.6,163.3c-222.9,0-393.9-127-430.2-357.6h1111.8V1192.7z
			 M2452.4,1063.1c49.2-204.7,215.1-318.8,422.4-318.8c207.3,0,375.8,111.4,425,318.8H2452.4z M4380.6,513.7
			c-404.3,0-689.4,287.7-689.4,679c0,391.3,285.1,679,689.4,679c404.3,0,689.4-287.7,689.4-679
			C5069.9,801.3,4784.9,513.7,4380.6,513.7z M4383.1,1641c-264.3,0-440.6-186.6-440.6-448.4c0-261.8,176.2-448.4,440.6-448.4
			c264.3,0,440.6,186.6,440.6,448.4C4823.7,1454.4,4644.9,1641,4383.1,1641z M6479.8,2094.6h28.5c158.1,0,217.7-70,217.7-254V557.7
			h246.2V1825c0,318.8-124.4,482-440.6,482h-51.8V2094.6L6479.8,2094.6z M6358,1438.9V648.4c0-137.4-82.9-254-212.5-295.4
			c-127-41.5-264.3,2.6-344.7,111.4l-562.4,738.6c-67.4,90.7-80.3,199.6-33.7,292.9c49.2,98.5,158.1,160.7,282.5,160.7h624.6v305.8
			H6358v-303.2h186.6v-220.3H6358z M6111.8,1436.3H5495c-33.7,0-62.2-28.5-62.2-62.2c0-13,2.6-25.9,10.4-36.3l552-733.4
			c15.5-20.7,33.7-25.9,49.2-25.9c10.4,0,18.1,0,23.3,2.6c13,2.6,44.1,18.1,44.1,59.6V1436.3z M2048.1,1166.8V1838h-246.2v-671.2
			c0-279.9-152.9-422.4-386.2-422.4s-386.2,142.5-386.2,422.4V1469c-38.2-16.4-80.2-25.6-124.4-25.6c-41,0-82.3,8-121.8,24.4v-298.5
			c0-430.2,254-653.1,632.4-653.1C1794.1,516.3,2050.7,734,2048.1,1166.8z"/>
	</g>
</g>
<g id="Black" class="st0">
	<g class="st1">
		<path d="M88.6,1288.8c19.2-33.3,46.2-59.4,77.3-77.3c33.3-19.2,69.7-28.3,105.6-28.3c38.5,0,74.5,10.3,105.6,28.3
			c33.3,19.2,59.4,46.2,77.3,77.3c12.1,20.9,20.1,43,24.5,65.4c38.8,189.2,175.1,267.5,358.5,205.9c22.2-7.5,45-11.2,67.7-11.1
			c38.5,0,74.5,10.3,105.6,28.3c33.3,19.2,59.4,46.2,77.3,77.3c19.2,33.3,28.3,69.7,28.3,105.6c0,38.5-10.3,74.5-28.3,105.6
			c-19.2,33.3-46.2,59.4-77.3,77.3c-33.3,19.2-69.7,28.3-105.6,28.3c-23.6,0-46.2-3.9-67.4-11l0,0c-183.9-61.9-320.4,16.7-359,206.5
			c0,0,0-0.1,0-0.2c-4.5,23.2-12.9,45-24.3,64.8c-19.2,33.3-46.2,59.4-77.3,77.3c-33.3,19.2-69.7,28.3-105.6,28.3
			c-38.5,0-74.5-10.3-105.6-28.3c-33.3-19.2-59.4-46.2-77.3-77.3c-19.2-33.3-28.3-69.7-28.3-105.6c0-38.5,10.3-74.5,28.3-105.6
			c19.2-33.3,46.2-59.4,77.3-77.3c33.3-19.2,69.7-28.3,105.6-28.3c24.3,0,47.6,4.1,69.4,11.7c122.3,40.6,223.5,18.8,288.6-56.8
			c54.7-63.4,54.6-155.7-0.1-219.1c-65.3-75.7-166.9-97.4-289.7-56.3c0,0,0,0,0,0c-22.3,7.6-45.4,11.4-68.2,11.3
			c-38.5,0-74.5-10.3-105.6-28.3c-33.3-19.2-59.4-46.2-77.3-77.3c-19.2-33.3-28.3-69.7-28.3-105.6
			C60.3,1355.9,70.6,1319.9,88.6,1288.8z M6849.1,456.7c35.9,0,72.3-9.1,105.6-28.3c31.1-17.9,58.1-44,77.3-77.3
			c18-31.1,28.3-67.1,28.3-105.6c0-35.9-9.1-72.3-28.3-105.6c-17.9-31.1-44-58.1-77.3-77.3c-31.1-18-67.1-28.3-105.6-28.3
			c-35.9,0-72.3,9.1-105.6,28.3c-31.1,17.9-58.1,44-77.3,77.3c-18,31.1-28.3,67.1-28.3,105.6c0,35.9,9.1,72.3,28.3,105.6
			c17.9,31.1,44,58.1,77.3,77.3C6774.6,446.3,6810.6,456.7,6849.1,456.7z"/>
		<path d="M3556.4,1192.7c0-391.3-279.9-679-684.2-679c-404.3,0-689.4,287.7-689.4,679c0,391.3,287.7,679,692,679
			c298,0,531.3-152.9,629.8-393.9h-272.1c-75.2,111.4-191.8,163.3-357.6,163.3c-222.9,0-393.9-127-430.2-357.6h1111.8V1192.7z
			 M2452.4,1063.1c49.2-204.7,215.1-318.8,422.4-318.8c207.3,0,375.8,111.4,425,318.8H2452.4z M4380.6,513.7
			c-404.3,0-689.4,287.7-689.4,679c0,391.3,285.1,679,689.4,679c404.3,0,689.4-287.7,689.4-679
			C5069.9,801.3,4784.9,513.7,4380.6,513.7z M4383.1,1641c-264.3,0-440.6-186.6-440.6-448.4c0-261.8,176.2-448.4,440.6-448.4
			c264.3,0,440.6,186.6,440.6,448.4C4823.7,1454.4,4644.9,1641,4383.1,1641z M6479.8,2094.6h28.5c158.1,0,217.7-70,217.7-254V557.7
			h246.2V1825c0,318.8-124.4,482-440.6,482h-51.8V2094.6L6479.8,2094.6z M6358,1438.9V648.4c0-137.4-82.9-254-212.5-295.4
			c-127-41.5-264.3,2.6-344.7,111.4l-562.4,738.6c-67.4,90.7-80.3,199.6-33.7,292.9c49.2,98.5,158.1,160.7,282.5,160.7h624.6v305.8
			H6358v-303.2h186.6v-220.3H6358z M6111.8,1436.3H5495c-33.7,0-62.2-28.5-62.2-62.2c0-13,2.6-25.9,10.4-36.3l552-733.4
			c15.5-20.7,33.7-25.9,49.2-25.9c10.4,0,18.1,0,23.3,2.6c13,2.6,44.1,18.1,44.1,59.6V1436.3z M2048.1,1166.8V1838h-246.2v-671.2
			c0-279.9-152.9-422.4-386.2-422.4s-386.2,142.5-386.2,422.4V1469c-38.2-16.4-80.2-25.6-124.4-25.6c-41,0-82.3,8-121.8,24.4v-298.5
			c0-430.2,254-653.1,632.4-653.1C1794.1,516.3,2050.7,734,2048.1,1166.8z"/>
	</g>
</g>
</svg>
